# xmcd
#
# Track frame offsets:
#	150
#	18494
#	37082
#	61326
#	85309
#	92544
#	105242
#	116018
#	126600
#	149066
#	162314
#	196174
#
# Disc length: 2876 seconds
#
# Revision: 1
# Processed by: cddbd v1.5.2PL0 Copyright (c) Steve Scherf et al.
# Submitted via: Rip'N'TagIt 1.5.0.0 
#
DISCID=a70b3a0c
DTITLE=Rose Hill Drive - Rose Hill Drive
DYEAR=2006
DGENRE=Rock
TTITLE0=Showdown
TTITLE1=Cold Enough
TTITLE2=Cool Cody
TTITLE3=The Guru
TTITLE4=In The Beginning
TTITLE5=Brain Novocaine
TTITLE6=Declaration Of Independence
TTITLE7=It's Simple
TTITLE8=Raise Your Hands
TTITLE9=Man On Fire
TTITLE10=Reptilian Blues
TTITLE11=Cross The Line
EXTD=
EXTT0=
EXTT1=
EXTT2=
EXTT3=
EXTT4=
EXTT5=
EXTT6=
EXTT7=
EXTT8=
EXTT9=
EXTT10=
EXTT11=
PLAYORDER=
